<svg xmlns="http://www.w3.org/2000/svg" width="27" height="22.924" viewBox="0 0 27 22.924">
  <path id="Icon_material-select-all" data-name="Icon material-select-all" d="M4.5,7.047h3V4.5A2.81,2.81,0,0,0,4.5,7.047Zm0,10.188h3V14.688h-3Zm6,10.188h3V24.877h-3Zm-6-15.283h3V9.594h-3ZM19.5,4.5h-3V7.047h3Zm9,0V7.047h3A2.81,2.81,0,0,0,28.5,4.5ZM7.5,27.424V24.877h-3A2.81,2.81,0,0,0,7.5,27.424Zm-3-5.094h3V19.783h-3Zm9-17.83h-3V7.047h3Zm3,22.924h3V24.877h-3Zm12-10.188h3V14.688h-3Zm0,10.188a2.81,2.81,0,0,0,3-2.547h-3Zm0-15.283h3V9.594h-3Zm0,10.188h3V19.783h-3Zm-6,5.094h3V24.877h-3Zm0-20.377h3V4.5h-3ZM10.5,22.33h15V9.594h-15Zm3-10.188h9v7.641h-9Z" transform="translate(-4.5 -4.5)" fill="#fff"/>
</svg>
