<svg xmlns="http://www.w3.org/2000/svg" width="35.2" height="33.86" viewBox="0 0 35.2 33.86">
  <g id="WHITW" transform="translate(0.75 0.75)">
    <path id="Path_107" data-name="Path 107" d="M4814.438,1980.781V1965.4s0-6.686,7.756-6.954,8.96,6.285,8.96,6.285v16.047Z" transform="translate(-4814.438 -1953.62)" fill="none" stroke="#fff" stroke-width="1.5"/>
    <path id="Path_108" data-name="Path 108" d="M4852.009,1958.441l20.666.445s4.272,1.144,4.541,4.779,0,17.028,0,17.028h-16.983" transform="translate(-4843.651 -1953.621)" fill="none" stroke="#fff" stroke-width="1.5"/>
    <path id="Path_109" data-name="Path 109" d="M4919.3,1950.461v-13.689h4.193" transform="translate(-4895.969 -1936.772)" fill="none" stroke="#fff" stroke-width="1.5"/>
    <path id="Path_110" data-name="Path 110" d="M4905.423,2058.865v5.95" transform="translate(-4885.183 -2031.704)" fill="none" stroke="#fff" stroke-width="1.5"/>
    <path id="Path_111" data-name="Path 111" d="M4851.854,2001.865h-8.322l5.871,4.355,2.451-2.144" transform="translate(-4835.174 -1987.388)" fill="none" stroke="#fff" stroke-width="1.5"/>
    <path id="Path_112" data-name="Path 112" d="M4843.532,2001.865v9.1h10.287" transform="translate(-4837.06 -1988.176)" fill="none" stroke="#fff" stroke-width="1.5"/>
    <path id="Path_113" data-name="Path 113" d="M4843.532,2022.066l4.906-4.906" transform="translate(-4837.06 -1999.278)" fill="none" stroke="#fff" stroke-width="1.5"/>
  </g>
</svg>
