<svg id="Group_1191" data-name="Group 1191" xmlns="http://www.w3.org/2000/svg" width="16.946" height="16.947" viewBox="0 0 16.946 16.947">
  <g id="Group_1190" data-name="Group 1190">
    <path id="Path_1982" data-name="Path 1982" d="M288.216,129c.468.168.565.523.561.982-.015,2-.007,3.992-.006,5.988a.788.788,0,0,1-.188.565.71.71,0,0,1-.545.234q-3.151,0-6.3,0a.748.748,0,0,1-.735-.554v-6.653a.824.824,0,0,1,.563-.563Zm-.867,1.426h-4.922v4.919h4.922Z" transform="translate(-281 -129)"/>
    <path id="Path_1983" data-name="Path 1983" d="M565.867,136.215a.827.827,0,0,1-.9.56c-2.012-.011-4.025,0-6.037,0a.732.732,0,0,1-.832-.832c0-2.012.006-4.025-.005-6.037a.827.827,0,0,1,.56-.9H565.3a.825.825,0,0,1,.563.563Zm-1.423-5.787h-4.92v4.915h4.92Z" transform="translate(-548.921 -129)"/>
    <path id="Path_1984" data-name="Path 1984" d="M281,406.652a.827.827,0,0,1,.9-.56c2.012.011,4.025,0,6.038,0a.757.757,0,0,1,.838.882c-.015.534-.006,1.069-.006,1.6,0,1.461-.008,2.922,0,4.383a.825.825,0,0,1-.56.9h-6.653A.824.824,0,0,1,281,413.3Zm6.343,5.794v-4.922h-4.915v4.922Z" transform="translate(-281 -396.921)"/>
    <path id="Path_1985" data-name="Path 1985" d="M558.652,413.867a.827.827,0,0,1-.56-.9c.011-2.012,0-4.025.005-6.037a.732.732,0,0,1,.832-.832c2.012,0,4.025.006,6.037,0a.827.827,0,0,1,.9.56V413.3a.825.825,0,0,1-.563.563Zm.867-1.427h4.922v-4.918h-4.922Z" transform="translate(-548.921 -396.921)"/>
    <path id="Path_1986" data-name="Path 1986" d="M281.563,129a.824.824,0,0,0-.563.563V129Z" transform="translate(-281 -129)"/>
    <path id="Path_1987" data-name="Path 1987" d="M776.563,129.563A.824.824,0,0,0,776,129h.563Z" transform="translate(-759.616 -129)"/>
    <path id="Path_1988" data-name="Path 1988" d="M281,624a.825.825,0,0,0,.563.563H281Z" transform="translate(-281 -607.616)"/>
    <path id="Path_1989" data-name="Path 1989" d="M776,624.563a.825.825,0,0,0,.563-.563v.563Z" transform="translate(-759.616 -607.616)"/>
  </g>
</svg>
