<svg xmlns="http://www.w3.org/2000/svg" width="54.5" height="66.659" viewBox="0 0 54.5 66.659">
  <g id="Group_419" data-name="Group 419" transform="translate(-1061 -474.114)">
    <path id="Icon_zocial-guest" data-name="Icon zocial-guest" d="M4.7,54.084a19.223,19.223,0,0,1,.845-4.671,28.107,28.107,0,0,1,6.089-11.529A26.474,26.474,0,0,1,22.02,30.372a14.562,14.562,0,0,1-5.561-11.745,14.461,14.461,0,0,1,4.4-10.651,14.672,14.672,0,0,1,20.908,0,14.461,14.461,0,0,1,4.4,10.651A14.636,14.636,0,0,1,40.746,30.3,27.611,27.611,0,0,1,53.2,39.562a23.1,23.1,0,0,1,5,14.444q0,6.713-5.139,7.735a8.476,8.476,0,0,1-.915,1.9,4.526,4.526,0,0,1-1.654,2.079,10.265,10.265,0,0,1-3.414,1.5c-1.456.388-2.616.682-3.485.873s-2.2.415-3.98.659-2.7.365-2.745.365a2.9,2.9,0,0,0-.493.071,3.077,3.077,0,0,1-.488.078h-8.45a44.206,44.206,0,0,1-9.079-1.206q-5.491-1.2-6.265-3.246a7.566,7.566,0,0,1-1.76-3.064,5.826,5.826,0,0,1-2.957-1.532Q4.7,59.115,4.7,54.084Z" transform="translate(1056.797 471.015)" fill="none" stroke="#000" stroke-width="1"/>
  </g>
</svg>
