<svg xmlns="http://www.w3.org/2000/svg" width="21.445" height="22.606" viewBox="0 0 21.445 22.606">
  <g id="Group_268" data-name="Group 268" transform="translate(-12 -11)">
    <path id="Icon_simple-email" data-name="Icon simple-email" d="M23.1,10.433a11.181,11.181,0,0,1-.393,2.529,7.161,7.161,0,0,1-1.029,2.221,5.334,5.334,0,0,1-1.744,1.578,5.1,5.1,0,0,1-2.546.6,3.828,3.828,0,0,1-1.841-.431A3.083,3.083,0,0,1,14.3,15.711a4.006,4.006,0,0,1-3.337,1.6A3.565,3.565,0,0,1,9.3,16.924a3.41,3.41,0,0,1-1.249-1.109,4.78,4.78,0,0,1-.724-1.735,7.157,7.157,0,0,1-.095-2.263,10.136,10.136,0,0,1,.721-2.772A7.477,7.477,0,0,1,9.289,6.923,5.615,5.615,0,0,1,11.121,5.57,5.311,5.311,0,0,1,13.35,5.1a7.241,7.241,0,0,1,1.333.109,5.428,5.428,0,0,1,1.892.729c.262.161.525.328.786.5l-.647,7.119a2.264,2.264,0,0,0,.019.833A1.147,1.147,0,0,0,17,14.9a.963.963,0,0,0,.432.268,1.659,1.659,0,0,0,1.516-.285,3.116,3.116,0,0,0,.813-.989,6.186,6.186,0,0,0,.547-1.486,9.77,9.77,0,0,0,.239-1.851,11.322,11.322,0,0,0-.3-3.458A6.751,6.751,0,0,0,18.9,4.423,6.2,6.2,0,0,0,16.5,2.7a9.065,9.065,0,0,0-3.5-.612,8.019,8.019,0,0,0-3.458.72,7.886,7.886,0,0,0-2.627,2,9.467,9.467,0,0,0-1.72,3,13.01,13.01,0,0,0-.724,3.743,11.921,11.921,0,0,0,.369,3.82,6.8,6.8,0,0,0,1.46,2.738,6.1,6.1,0,0,0,2.474,1.644,9.884,9.884,0,0,0,3.414.545,12.211,12.211,0,0,0,2.24-.23c.369-.071.72-.155,1.054-.249a8.173,8.173,0,0,0,.907-.311l.468,2.014a5.3,5.3,0,0,1-1.015.48,10.12,10.12,0,0,1-1.2.332,12.226,12.226,0,0,1-2.506.268,13.694,13.694,0,0,1-4.569-.7,8.45,8.45,0,0,1-3.331-2.093,8.692,8.692,0,0,1-2-3.457,14.129,14.129,0,0,1-.559-4.8,14.074,14.074,0,0,1,.961-4.605A11.316,11.316,0,0,1,4.958,3.29,10.549,10.549,0,0,1,8.488.876,11.494,11.494,0,0,1,13.06,0a12.013,12.013,0,0,1,4.43.759,8.383,8.383,0,0,1,5.1,5.429A12.077,12.077,0,0,1,23.1,10.433ZM10.409,11.818a4.609,4.609,0,0,0,.26,2.383,1.34,1.34,0,0,0,1.286.805,1.479,1.479,0,0,0,.44-.078,1.587,1.587,0,0,0,.507-.291,2.617,2.617,0,0,0,.514-.593,4.459,4.459,0,0,0,.473-1l.505-5.532a3.151,3.151,0,0,0-.786-.1A2.821,2.821,0,0,0,12.3,7.7a2.544,2.544,0,0,0-.927.842,4.83,4.83,0,0,0-.615,1.384,11.276,11.276,0,0,0-.349,1.893Z" transform="translate(10.33 11)"/>
  </g>
</svg>
